<?xml version="1.0" encoding="UTF-8" standalone="no"?>
<!DOCTYPE svg PUBLIC "-//W3C//DTD SVG 1.1//EN"
 "http://www.w3.org/Graphics/SVG/1.1/DTD/svg11.dtd">
<!-- Generated by graphviz version 5.0.0 (20220707.1540)
 -->
<!-- Title: dependencies Pages: 1 -->
<svg width="1053pt" height="174pt"
 viewBox="0.00 0.00 1053.00 173.80" xmlns="http://www.w3.org/2000/svg" xmlns:xlink="http://www.w3.org/1999/xlink">
<g id="graph0" class="graph" transform="scale(1 1) rotate(0) translate(4 169.8)">
<title>dependencies</title>
<polygon fill="white" stroke="transparent" points="-4,4 -4,-169.8 1049,-169.8 1049,4 -4,4"/>
<text text-anchor="middle" x="522.5" y="-8.2" font-family="sans-serif" font-size="14.00">dependencies</text>
<g id="clust1" class="cluster">
<title>cluster_AppModule</title>
<polygon fill="none" stroke="black" stroke-dasharray="1,5" points="8,-32.8 8,-157.8 1037,-157.8 1037,-32.8 8,-32.8"/>
</g>
<g id="clust6" class="cluster">
<title>cluster_AppModule_providers</title>
<polygon fill="none" stroke="black" points="16,-40.8 16,-92.8 1029,-92.8 1029,-40.8 16,-40.8"/>
</g>
<!-- AppService -->
<g id="node1" class="node">
<title>AppService</title>
<ellipse fill="#fdb462" stroke="black" cx="964" cy="-66.8" rx="56.75" ry="18"/>
<text text-anchor="middle" x="964" y="-62.6" font-family="Times,serif" font-size="14.00">AppService</text>
</g>
<!-- AppModule -->
<g id="node8" class="node">
<title>AppModule</title>
<polygon fill="#8dd3c7" stroke="black" points="574.66,-149.8 571.66,-153.8 550.66,-153.8 547.66,-149.8 491.34,-149.8 491.34,-113.8 574.66,-113.8 574.66,-149.8"/>
<text text-anchor="middle" x="533" y="-127.6" font-family="Times,serif" font-size="14.00">AppModule</text>
</g>
<!-- AppService&#45;&gt;AppModule -->
<g id="edge1" class="edge">
<title>AppService&#45;&gt;AppModule</title>
<path fill="none" stroke="black" d="M964,-85.09C964,-107.01 964,-140.8 964,-140.8 964,-140.8 584.72,-140.8 584.72,-140.8"/>
<polygon fill="black" stroke="black" points="584.72,-137.3 574.72,-140.8 584.72,-144.3 584.72,-137.3"/>
</g>
<!-- AuthHelper -->
<g id="node2" class="node">
<title>AuthHelper</title>
<ellipse fill="#fdb462" stroke="black" cx="833" cy="-66.8" rx="56.75" ry="18"/>
<text text-anchor="middle" x="833" y="-62.6" font-family="Times,serif" font-size="14.00">AuthHelper</text>
</g>
<!-- AuthHelper&#45;&gt;AppModule -->
<g id="edge2" class="edge">
<title>AuthHelper&#45;&gt;AppModule</title>
<path fill="none" stroke="black" d="M833,-84.91C833,-104.14 833,-131.8 833,-131.8 833,-131.8 584.71,-131.8 584.71,-131.8"/>
<polygon fill="black" stroke="black" points="584.71,-128.3 574.71,-131.8 584.71,-135.3 584.71,-128.3"/>
</g>
<!-- CategoryService -->
<g id="node3" class="node">
<title>CategoryService</title>
<ellipse fill="#fdb462" stroke="black" cx="683" cy="-66.8" rx="75.28" ry="18"/>
<text text-anchor="middle" x="683" y="-62.6" font-family="Times,serif" font-size="14.00">CategoryService</text>
</g>
<!-- CategoryService&#45;&gt;AppModule -->
<g id="edge3" class="edge">
<title>CategoryService&#45;&gt;AppModule</title>
<path fill="none" stroke="black" d="M683,-84.83C683,-101.2 683,-122.8 683,-122.8 683,-122.8 584.78,-122.8 584.78,-122.8"/>
<polygon fill="black" stroke="black" points="584.78,-119.3 574.78,-122.8 584.78,-126.3 584.78,-119.3"/>
</g>
<!-- PostService -->
<g id="node4" class="node">
<title>PostService</title>
<ellipse fill="#fdb462" stroke="black" cx="533" cy="-66.8" rx="56.77" ry="18"/>
<text text-anchor="middle" x="533" y="-62.6" font-family="Times,serif" font-size="14.00">PostService</text>
</g>
<!-- PostService&#45;&gt;AppModule -->
<g id="edge4" class="edge">
<title>PostService&#45;&gt;AppModule</title>
<path fill="none" stroke="black" d="M533,-84.91C533,-84.91 533,-103.79 533,-103.79"/>
<polygon fill="black" stroke="black" points="529.5,-103.79 533,-113.79 536.5,-103.79 529.5,-103.79"/>
</g>
<!-- ProfileService -->
<g id="node5" class="node">
<title>ProfileService</title>
<ellipse fill="#fdb462" stroke="black" cx="392" cy="-66.8" rx="66.05" ry="18"/>
<text text-anchor="middle" x="392" y="-62.6" font-family="Times,serif" font-size="14.00">ProfileService</text>
</g>
<!-- ProfileService&#45;&gt;AppModule -->
<g id="edge5" class="edge">
<title>ProfileService&#45;&gt;AppModule</title>
<path fill="none" stroke="black" d="M392,-84.83C392,-101.2 392,-122.8 392,-122.8 392,-122.8 481.08,-122.8 481.08,-122.8"/>
<polygon fill="black" stroke="black" points="481.08,-126.3 491.08,-122.8 481.08,-119.3 481.08,-126.3"/>
</g>
<!-- ResponseHelper -->
<g id="node6" class="node">
<title>ResponseHelper</title>
<ellipse fill="#fdb462" stroke="black" cx="233" cy="-66.8" rx="74.15" ry="18"/>
<text text-anchor="middle" x="233" y="-62.6" font-family="Times,serif" font-size="14.00">ResponseHelper</text>
</g>
<!-- ResponseHelper&#45;&gt;AppModule -->
<g id="edge6" class="edge">
<title>ResponseHelper&#45;&gt;AppModule</title>
<path fill="none" stroke="black" d="M233,-84.91C233,-104.14 233,-131.8 233,-131.8 233,-131.8 481.29,-131.8 481.29,-131.8"/>
<polygon fill="black" stroke="black" points="481.29,-135.3 491.29,-131.8 481.29,-128.3 481.29,-135.3"/>
</g>
<!-- UserService -->
<g id="node7" class="node">
<title>UserService</title>
<ellipse fill="#fdb462" stroke="black" cx="82" cy="-66.8" rx="58.46" ry="18"/>
<text text-anchor="middle" x="82" y="-62.6" font-family="Times,serif" font-size="14.00">UserService</text>
</g>
<!-- UserService&#45;&gt;AppModule -->
<g id="edge7" class="edge">
<title>UserService&#45;&gt;AppModule</title>
<path fill="none" stroke="black" d="M82,-85.09C82,-107.01 82,-140.8 82,-140.8 82,-140.8 480.98,-140.8 480.98,-140.8"/>
<polygon fill="black" stroke="black" points="480.98,-144.3 490.98,-140.8 480.98,-137.3 480.98,-144.3"/>
</g>
</g>
</svg>
